<?xml version="1.0" encoding="utf-8"?>
<svg viewBox="0 0 124 51" fill="none" xmlns="http://www.w3.org/2000/svg">
	<rect width="100%" height="100%" fill="#FFFFFF" />
	<path fill="#002651" d="M117.349 33.6282C119.116 42.2598 114.881 44.3716 112.101 44.3716C109.322 44.3716 107.555 41.6268 107.555 38.387C107.555 30.7452 109.328 27.9255 109.328 24.9908C109.328 21.5382 104.465 21.8316 101.997 22.7581C102.463 27.937 101.905 32.2874 97.9687 32.2874C94.7922 32.2874 94.0327 30.0144 92.2143 28.0636C91.3771 27.2069 90.3748 26.529 89.268 26.0711C88.1611 25.6131 86.9728 25.3846 85.7751 25.3994C83.9187 25.3871 82.0915 25.8612 80.4753 26.7747C77.5981 28.7024 78.7029 32.8686 80.7055 34.3359C81.7873 33.2541 83.0993 32.1723 84.8026 32.1723C86.9605 32.1723 88.5775 34.756 88.5775 37.0693C88.5775 40.7003 85.8787 43.4797 82.8691 43.4797C77.5463 43.4797 76.0789 39.3883 76.0789 32.4427C76.0789 30.7164 76.2343 27.6148 76.4645 25.3015C79.7848 24.0643 82.0232 23.3681 83.8704 22.597C90.8965 20.0478 96.2942 15.5421 96.2942 8.4469C96.2942 3.7398 92.128 0.500061 87.5014 0.500061C74.8417 0.500061 69.0586 17.4698 69.0586 32.8283C69.0586 39.2329 63.3042 43.4797 59.0804 43.4797C56.0709 43.4797 53.3836 41.7534 52.3823 38.0763C52.2327 37.4606 52.1521 36.8391 52.0716 36.2982C62.1072 29.6634 69.1564 20.7958 69.1564 9.91426C69.1564 4.58569 66.8546 0.500061 60.7953 0.500061C48.5902 0.500061 45.6899 15.8643 44.9246 32.9089C44.7232 37.3052 43.8428 38.6632 42.9911 40.4701C42.5515 41.3104 41.9134 42.0305 41.1322 42.5681C40.351 43.1056 39.4503 43.4442 38.5085 43.5545C34.8084 43.5545 32.4088 38.2259 32.4088 30.3597C32.4088 23.955 35.4931 20.1744 37.6568 18.9372C36.8052 17.7057 30.015 12.6073 26.3897 22.8732C25.4763 25.6402 24.9817 28.5282 24.9223 31.4415C24.9185 34.4672 25.4806 37.4669 26.5796 40.286C24.6749 42.1044 22.2983 43.0136 18.8284 43.0136C12.8899 43.0136 7.35988 35.6249 7.35988 26.9013C7.35988 15.2141 16.2389 7.97503 24.5368 7.97503C31.9427 7.97503 35.4701 12.4577 37.4209 15.5421C40.2002 15.5421 44.2283 13.3554 42.6804 10.0351C41.7597 8.02682 35.7233 0.500061 24.6921 0.500061C11.1118 0.500061 0 10.8004 0 27.5457C0 40.2054 8.79848 50.5001 18.5925 50.5001C22.3156 50.5001 26.5393 49.9246 30.2739 46.2648C31.2326 47.5655 32.4823 48.6238 33.9232 49.3552C35.364 50.0866 36.9559 50.4708 38.5717 50.477C41.6734 50.477 44.9016 48.9234 47.1458 45.3901C50.0863 49.3722 54.3388 50.477 58.2461 50.477C62.9532 50.477 68.2817 47.853 71.2107 44.2278C74.2951 48.394 78.3865 50.477 82.8634 50.477C89.5788 50.477 94.5909 45.7699 95.7475 38.9682C97.4218 38.9226 99.0509 38.4148 100.455 37.5009C99.9942 45.5283 105.317 50.4655 112.107 50.4655C119.283 50.4655 123.754 44.5212 123.754 35.648C123.754 31.9421 119.663 32.5118 117.349 33.5936V33.6282ZM60.3406 7.12338C62.067 7.12338 62.6424 9.1144 62.6424 11.2723C62.6424 16.7678 58.2806 24.4441 51.358 29.6864C51.8069 19.5471 55.1847 7.1464 60.3292 7.1464L60.3406 7.12338ZM87.0181 7.51468C88.3301 7.51468 89.2565 8.28577 89.2565 9.44241C89.2565 13.0044 83.1166 16.1693 77.5348 18.2697C78.726 13.1943 81.8851 7.51468 87.0181 7.51468Z" />
  	<path fill="#002651" d="M 119.33 23.462 C 121.511 22.938 122.972 21.223 122.339 18.985 C 121.706 16.746 119.75 15.975 117.58 16.539 C 115.411 17.103 114.128 19.267 114.646 20.872 C 114.924 21.837 115.574 22.651 116.452 23.136 C 117.33 23.622 118.365 23.739 119.33 23.462"/>
</svg>
